<svg id="Capa_1" enable-background="new 0 0 511.742 511.742" height="512" viewBox="0 0 511.742 511.742" width="512" xmlns="http://www.w3.org/2000/svg"><g><path d="m22.489 316.063v57.326h431.144c14.735 0 28.821-5.494 39.664-15.472 6.694-6.159 11.781-13.694 14.988-22.011-311.751-.511-442.229-13.763-485.796-19.843z"/><path d="m220.295 159.001 84.355 58.43c26.928 18.655 61.803 17.347 86.93-1.56-40.319-22.281-70.548-45.814-91.228-64.482-17.439-15.744-43.094-17.398-62.383-4.028-5.93 4.111-11.821 7.982-17.674 11.64z"/><path d="m56.328 202.996c21.113 35.262 33.527 65.505 37.049 90.169 73.077 5.901 202.496 12.449 418.365 12.744-3.019-24.708-19.58-46.324-43.502-55.107-17.124-6.287-33.093-13.088-47.952-20.174-16.125 15.907-36.975 26.159-59.626 29.146-4.572.603-9.152.901-13.71.901-21.128 0-41.809-6.409-59.384-18.583l-96.245-66.666c-36.126 18.347-70.36 27.58-101.71 27.582-12.451.001-24.445-1.457-35.926-4.37.879 1.437 1.759 2.886 2.641 4.358z"/><path d="m62.42 290.403c-7.32-33.52-33.196-76.2-52.32-103.663-5.034 13.059-10.1 31.452-10.1 52.67 0 22.978 10.229 38.773 15.292 45.183 6.826 1.125 21.566 3.283 47.128 5.81z"/></g></svg>